MoBL_ARMS_module2_4_allmuscles_shoulder_states	
version=1	
nRows=293	
nColumns=2	
inDegrees=yes	
	
# SIMM Motion File Header:	
name MoBL_ARMS_module2_4_allmuscles_shoulder_states	
datacolumns 2	
datarows 293	
otherdata 1	
range 2.708927771 2.896083873	
endheader	
time	shoulder_elv
2.708927771	23.89140367
2.709241244	23.87714672
2.709554717	23.86287534
2.711122081	23.79130845
2.711905763	23.75539365
2.712238535	23.74011678
2.712571307	23.72482375
2.714235167	23.64812133
2.714568263	23.63271834
2.71490136	23.61729905
2.716566844	23.53996448
2.71720776	23.51009857
2.717366081	23.50271186
2.717524402	23.49532146
2.718316007	23.45831563
2.718925846	23.42974576
2.719414251	23.40682637
2.719711896	23.39284186
2.720009541	23.37884452
2.720607747	23.35067431
2.721086238	23.32810466
2.721564729	23.30550162
2.72238124	23.26685518
2.722981981	23.23836032
2.723462443	23.21553336
2.723942905	23.1926728
2.724630606	23.15989398
2.725166703	23.1342942
2.725530081	23.11691863
2.726201597	23.08475833
2.726873112	23.05253324
2.727396968	23.02734917
2.727920823	23.00212507
2.728703256	22.96437678
2.729301183	22.93547066
2.729781773	22.91219979
2.730386744	22.88285872
2.73087753	22.85901694
2.731059745	22.85015626
2.73124196	22.84129073
2.732153035	22.79689152
2.732735616	22.76843824
2.733225144	22.74449183
2.733714672	22.72051026
2.736162311	22.60008601
2.736394619	22.58861164
2.736626927	22.57712942
2.737478954	22.53495015
2.737797064	22.51917556
2.738115173	22.50338598
2.739705721	22.42422026
2.740363214	22.39138909
2.74081504	22.36879171
2.741266867	22.34616466
2.741933018	22.31275108
2.742455718	22.28648836
2.742720491	22.27316997
2.742985264	22.25984147
2.743619167	22.2278905
2.744410623	22.18791697
2.744833119	22.16654155
2.745216883	22.14710349
2.745600648	22.12764383
2.74751947	22.03002971
2.748010094	22.00498628
2.748252749	21.99258734
2.748495405	21.98017987
2.749708684	21.91801651
2.750072719	21.89932392
2.750436753	21.88061187
2.752256928	21.78676844
2.753131628	21.74150345
2.753343725	21.73051108
2.753555823	21.71951222
2.754616312	21.66442205
2.754968335	21.64609987
2.755320358	21.62775944
2.757080472	21.53579361
2.757825939	21.49671074
2.758727026	21.44936403
2.758924479	21.43897365
2.759121932	21.42857766
2.760109198	21.37651509
2.760551248	21.35315932
2.760993299	21.32977522
2.763203552	21.21244165
2.763942662	21.17305194
2.764270892	21.1555347
2.764599121	21.13800225
2.765162196	21.10789023
2.765350977	21.09778456
2.765539759	21.08767381
2.766483666	21.03704515
2.767068158	21.00563205
2.767533461	20.98059039
2.767736314	20.9696637
2.767939167	20.95873117
2.768953432	20.90398235
2.769365391	20.88170428
2.769777351	20.85940169
2.77183715	20.74753459
2.772698943	20.70055599
2.773281339	20.6687498
2.773739512	20.64369472
2.774197685	20.6186099
2.776488552	20.49275105
2.776899685	20.47008707
2.777310819	20.44739939
2.778316365	20.39181224
2.778933821	20.35761021
2.779246136	20.34029057
2.779744959	20.31259979
2.780243782	20.28487498
2.781477821	20.21614042
2.782711861	20.14719682
2.783358223	20.1110031
2.783865545	20.08255537
2.784372866	20.05407185
2.786909473	19.91113217
2.787456068	19.88021751
2.787624837	19.87066393
2.787793607	19.86110644
2.788637454	19.81326159
2.789250418	19.77844758
2.789737254	19.75076128
2.790224091	19.72304231
2.792658273	19.58397341
2.793438806	19.53921349
2.793868033	19.51456498
2.794455523	19.48078831
2.794828123	19.45934273
2.795200723	19.43787837
2.797063722	19.33028242
2.797401377	19.31073269
2.797739031	19.29116759
2.799427303	19.19311853
2.799965371	19.16179128
2.800696866	19.11914159
2.801001579	19.10135484
2.801226808	19.08819992
2.801452036	19.07503834
2.802578179	19.00913198
2.802747951	18.99918195
2.802917723	18.98922813
2.803766583	18.9394033
2.804410323	18.90155651
2.804682824	18.88551945
2.804955326	18.86947276
2.805599758	18.83148647
2.80604267	18.80534811
2.806485582	18.77918419
2.807377336	18.72643031
2.808028067	18.68787091
2.808402885	18.6656365
2.808777703	18.64338388
2.810651793	18.53185468
2.810819542	18.52185007
2.810987292	18.51184185
2.81182604	18.4617478
2.812458731	18.42390214
2.812732809	18.40749203
2.813006887	18.39107243
2.813580079	18.35670311
2.813983627	18.33248137
2.814387175	18.3082389
2.816404913	18.18672424
2.816638295	18.17263671
2.816871678	18.15854238
2.818038589	18.08797048
2.818214796	18.07729938
2.818391002	18.0666244
2.819272034	18.01319266
2.81986258	17.97732505
2.820069963	17.96471923
2.820277346	17.95210809
2.82131426	17.88897429
2.821721942	17.86411648
2.822129623	17.83923831
2.822770531	17.80008745
2.823278232	17.76903871
2.823495072	17.75576825
2.823711911	17.74249205
2.824796106	17.6760268
2.825421129	17.63764691
2.825696588	17.6207174
2.825972046	17.60377879
2.826525713	17.56970534
2.826903599	17.54642887
2.827281485	17.52313505
2.829170915	17.40641428
2.829613717	17.37899944
2.83005652	17.35156125
2.830918254	17.29809864
2.831544657	17.25918212
2.831931769	17.23510936
2.832318881	17.21101885
2.834254441	17.09030815
2.834477108	17.07639394
2.834699776	17.06247396
2.835813115	16.99278956
2.836254937	16.9650968
2.836696758	16.93738158
2.837372749	16.89493451
2.837902224	16.86165165
2.838152962	16.84587915
2.838403699	16.83009947
2.839657388	16.75109588
2.840102744	16.72298883
2.840695525	16.68554319
2.841175006	16.65522628
2.841654486	16.62488344
2.842584601	16.56595127
2.843245782	16.52400123
2.843762458	16.49118648
2.844279134	16.45834153
2.846862513	16.29368468
2.847588984	16.24725274
2.848286058	16.202647
2.848564258	16.18483056
2.848842457	16.16700585
2.849342052	16.1349755
2.84987948	16.10049002
2.850026628	16.09104256
2.850173775	16.08159275
2.850909513	16.03430973
2.851495001	15.99664238
2.851968692	15.96614141
2.852442383	15.93561629
2.854810838	15.78264441
2.855543316	15.7352197
2.855953186	15.70865872
2.856363056	15.68207979
2.858412406	15.54893217
2.85926491	15.49342111
2.860227691	15.43064314
2.860727768	15.39799942
2.861350436	15.35731907
2.861868173	15.32346552
2.862251284	15.29839781
2.862634395	15.27331565
2.863524293	15.21499972
2.864249511	15.16741924
2.865199233	15.10503302
2.865492279	15.08576579
2.865785325	15.06649036
2.866223762	15.03763656
2.866892598	14.99358511
2.867561434	14.94949068
2.868630835	14.87890178
2.86939376	14.8284783
2.869982822	14.78950938
2.870458038	14.75804873
2.870933254	14.72656653
2.873309337	14.56885085
2.874040484	14.52021882
2.874596742	14.48318795
2.874956017	14.45925604
2.875173599	14.44475696
2.875391181	14.43025365
2.876479089	14.35767571
2.876874037	14.33130229
2.877358463	14.29893514
2.878076536	14.25092008
2.878426797	14.22748359
2.878777057	14.20403607
2.880397126	14.09545023
2.882017196	13.98664994
2.882391107	13.96150943
2.882765018	13.93635702
2.884634571	13.81042753
2.88516276	13.77479915
2.885505728	13.75165323
2.885703354	13.73831178
2.88590098	13.72496722
2.886889113	13.65819947
2.887647062	13.60693487
2.887824574	13.59492232
2.888002085	13.58290731
2.888889645	13.52279712
2.889614108	13.47368954
2.88985584	13.45729522
2.890097572	13.44089655
2.891306232	13.35883997
2.891485482	13.34666159
2.891664732	13.33448082
2.892560984	13.27354317
2.893172296	13.23194703
2.893599105	13.20288995
2.894203785	13.1617019
2.894572395	13.13658171
2.89478832	13.12186236
2.895004246	13.10713978
2.896083873	13.03348059
